<mxfile host="65bd71144e" modified="2021-02-05T10:07:04.576Z" agent="5.0 (X11; Linux x86_64) AppleWebKit/537.36 (KHTML, like Gecko) code-oss/1.52.1 Chrome/83.0.4103.122 Electron/9.4.0 Safari/537.36" etag="pmSQiJE4a0Yq3Z7h79Fe" version="13.10.0" type="embed">
    <diagram id="Nr5U4YqZo1rrL3Hh6ka6" name="Page-1">
        <mxGraphModel dx="975" dy="644" grid="1" gridSize="10" guides="1" tooltips="1" connect="1" arrows="1" fold="1" page="1" pageScale="1" pageWidth="1169" pageHeight="827" background="#4F4F4F" math="0" shadow="0">
            <root>
                <mxCell id="0"/>
                <mxCell id="1" parent="0"/>
                <mxCell id="13" style="edgeStyle=orthogonalEdgeStyle;rounded=0;orthogonalLoop=1;jettySize=auto;html=1;entryX=0.5;entryY=0;entryDx=0;entryDy=0;exitX=0.5;exitY=1;exitDx=0;exitDy=0;fillColor=#fa6800;strokeColor=#C73500;" parent="1" source="2" target="3" edge="1">
                    <mxGeometry relative="1" as="geometry"/>
                </mxCell>
                <mxCell id="14" value="connect()" style="edgeLabel;html=1;align=center;verticalAlign=middle;resizable=0;points=[];fontColor=#05F03C;labelBackgroundColor=none;" parent="13" vertex="1" connectable="0">
                    <mxGeometry x="-0.1125" y="1" relative="1" as="geometry">
                        <mxPoint x="29" as="offset"/>
                    </mxGeometry>
                </mxCell>
                <mxCell id="25" style="edgeStyle=orthogonalEdgeStyle;rounded=1;orthogonalLoop=1;jettySize=auto;html=1;exitX=0.25;exitY=1;exitDx=0;exitDy=0;entryX=0.5;entryY=0;entryDx=0;entryDy=0;fillColor=#fa6800;strokeColor=#C73500;" edge="1" parent="1" source="2" target="20">
                    <mxGeometry relative="1" as="geometry">
                        <Array as="points">
                            <mxPoint x="600" y="300"/>
                            <mxPoint x="370" y="300"/>
                        </Array>
                    </mxGeometry>
                </mxCell>
                <mxCell id="26" value="close()" style="edgeLabel;html=1;align=center;verticalAlign=middle;resizable=0;points=[];labelBackgroundColor=none;fontColor=#05F03C;" vertex="1" connectable="0" parent="25">
                    <mxGeometry x="-0.4542" y="1" relative="1" as="geometry">
                        <mxPoint y="-17" as="offset"/>
                    </mxGeometry>
                </mxCell>
                <mxCell id="2" value="&lt;b&gt;State::Created&lt;/b&gt;" style="rounded=0;whiteSpace=wrap;html=1;fillColor=#1ba1e2;strokeColor=#006EAF;fontColor=#000000;" parent="1" vertex="1">
                    <mxGeometry x="570" y="200" width="120" height="60" as="geometry"/>
                </mxCell>
                <mxCell id="18" style="edgeStyle=orthogonalEdgeStyle;rounded=0;orthogonalLoop=1;jettySize=auto;html=1;exitX=0.75;exitY=1;exitDx=0;exitDy=0;entryX=0.5;entryY=0;entryDx=0;entryDy=0;fillColor=#fa6800;strokeColor=#C73500;" parent="1" source="3" target="5" edge="1">
                    <mxGeometry relative="1" as="geometry"/>
                </mxCell>
                <mxCell id="19" value="+USOCL URC" style="edgeLabel;html=1;align=center;verticalAlign=middle;resizable=0;points=[];fontColor=#FF9933;labelBackgroundColor=none;" parent="18" vertex="1" connectable="0">
                    <mxGeometry x="-0.2" y="2" relative="1" as="geometry">
                        <mxPoint x="48" as="offset"/>
                    </mxGeometry>
                </mxCell>
                <mxCell id="23" style="edgeStyle=orthogonalEdgeStyle;rounded=1;orthogonalLoop=1;jettySize=auto;html=1;exitX=0.25;exitY=1;exitDx=0;exitDy=0;fillColor=#fa6800;strokeColor=#C73500;" parent="1" source="3" target="20" edge="1">
                    <mxGeometry relative="1" as="geometry"/>
                </mxCell>
                <mxCell id="24" value="close()" style="edgeLabel;html=1;align=center;verticalAlign=middle;resizable=0;points=[];fontColor=#05F03C;labelBackgroundColor=none;" parent="23" vertex="1" connectable="0">
                    <mxGeometry x="-0.1765" y="-3" relative="1" as="geometry">
                        <mxPoint x="-5" y="-12" as="offset"/>
                    </mxGeometry>
                </mxCell>
                <mxCell id="3" value="&lt;b&gt;State::Connected&lt;/b&gt;" style="rounded=0;whiteSpace=wrap;html=1;fillColor=#1ba1e2;strokeColor=#006EAF;fontColor=#000000;" parent="1" vertex="1">
                    <mxGeometry x="570" y="340" width="120" height="60" as="geometry"/>
                </mxCell>
                <mxCell id="21" style="edgeStyle=orthogonalEdgeStyle;rounded=0;orthogonalLoop=1;jettySize=auto;html=1;exitX=0;exitY=0.5;exitDx=0;exitDy=0;entryX=1;entryY=0.5;entryDx=0;entryDy=0;fillColor=#fa6800;strokeColor=#C73500;" parent="1" source="5" target="20" edge="1">
                    <mxGeometry relative="1" as="geometry"/>
                </mxCell>
                <mxCell id="22" value="&lt;font color=&quot;#05f03c&quot;&gt;close()&lt;/font&gt; / &lt;font color=&quot;#ff9933&quot;&gt;timeout&lt;/font&gt;" style="edgeLabel;html=1;align=center;verticalAlign=middle;resizable=0;points=[];labelBackgroundColor=none;" parent="21" vertex="1" connectable="0">
                    <mxGeometry x="-0.1053" y="-1" relative="1" as="geometry">
                        <mxPoint y="-9" as="offset"/>
                    </mxGeometry>
                </mxCell>
                <mxCell id="5" value="&lt;b&gt;State::ShutdownForWrite&lt;/b&gt;" style="rounded=0;whiteSpace=wrap;html=1;fillColor=#1ba1e2;strokeColor=#006EAF;fontColor=#000000;" parent="1" vertex="1">
                    <mxGeometry x="560" y="520" width="200" height="60" as="geometry"/>
                </mxCell>
                <mxCell id="11" style="edgeStyle=orthogonalEdgeStyle;rounded=0;orthogonalLoop=1;jettySize=auto;html=1;entryX=0;entryY=0.5;entryDx=0;entryDy=0;fontColor=#FF9933;strokeColor=#C73500;fillColor=#fa6800;" parent="1" source="10" target="2" edge="1">
                    <mxGeometry relative="1" as="geometry"/>
                </mxCell>
                <mxCell id="12" value="socket()" style="edgeLabel;html=1;align=center;verticalAlign=middle;resizable=0;points=[];fontColor=#05F03C;labelBackgroundColor=none;" parent="11" vertex="1" connectable="0">
                    <mxGeometry x="-0.2444" y="3" relative="1" as="geometry">
                        <mxPoint y="-7" as="offset"/>
                    </mxGeometry>
                </mxCell>
                <mxCell id="10" value="Set::Add" style="ellipse;whiteSpace=wrap;html=1;aspect=fixed;fillColor=#60a917;strokeColor=#2D7600;fontColor=#000000;fontStyle=1" parent="1" vertex="1">
                    <mxGeometry x="330" y="190" width="80" height="80" as="geometry"/>
                </mxCell>
                <mxCell id="20" value="Set::Remove" style="ellipse;whiteSpace=wrap;html=1;aspect=fixed;fillColor=#60a917;strokeColor=#2D7600;fontColor=#000000;fontStyle=1" parent="1" vertex="1">
                    <mxGeometry x="330" y="510" width="80" height="80" as="geometry"/>
                </mxCell>
                <mxCell id="27" value="&lt;font&gt;Send AT+USOCL&lt;/font&gt;" style="text;html=1;align=center;verticalAlign=middle;resizable=0;points=[];autosize=1;fontColor=#FF66FF;" vertex="1" parent="1">
                    <mxGeometry x="400" y="360" width="110" height="20" as="geometry"/>
                </mxCell>
                <mxCell id="28" value="" style="endArrow=classic;html=1;fontColor=#FF66FF;exitX=0.63;exitY=-0.019;exitDx=0;exitDy=0;exitPerimeter=0;" edge="1" parent="1" source="27">
                    <mxGeometry width="50" height="50" relative="1" as="geometry">
                        <mxPoint x="470" y="360" as="sourcePoint"/>
                        <mxPoint x="500" y="310" as="targetPoint"/>
                    </mxGeometry>
                </mxCell>
                <mxCell id="29" value="" style="endArrow=classic;html=1;fontColor=#FF66FF;exitX=0.634;exitY=1.086;exitDx=0;exitDy=0;exitPerimeter=0;" edge="1" parent="1" source="27">
                    <mxGeometry width="50" height="50" relative="1" as="geometry">
                        <mxPoint x="480" y="370" as="sourcePoint"/>
                        <mxPoint x="500" y="430" as="targetPoint"/>
                    </mxGeometry>
                </mxCell>
                <mxCell id="30" value="&lt;font&gt;Send AT+USOCO&lt;/font&gt;" style="text;html=1;align=center;verticalAlign=middle;resizable=0;points=[];autosize=1;fontColor=#FF66FF;" vertex="1" parent="1">
                    <mxGeometry x="760" y="287" width="110" height="20" as="geometry"/>
                </mxCell>
                <mxCell id="31" value="&lt;font&gt;Send AT+USOCR&lt;/font&gt;" style="text;html=1;align=center;verticalAlign=middle;resizable=0;points=[];autosize=1;fontColor=#FF66FF;" vertex="1" parent="1">
                    <mxGeometry x="420" y="140" width="110" height="20" as="geometry"/>
                </mxCell>
                <mxCell id="32" value="" style="endArrow=classic;html=1;fontColor=#FF66FF;exitX=-0.012;exitY=0.457;exitDx=0;exitDy=0;exitPerimeter=0;" edge="1" parent="1" source="30">
                    <mxGeometry width="50" height="50" relative="1" as="geometry">
                        <mxPoint x="479.29999999999995" y="376.62" as="sourcePoint"/>
                        <mxPoint x="700" y="296" as="targetPoint"/>
                    </mxGeometry>
                </mxCell>
                <mxCell id="33" value="" style="endArrow=classic;html=1;fontColor=#FF66FF;exitX=0.44;exitY=1.086;exitDx=0;exitDy=0;exitPerimeter=0;" edge="1" parent="1" source="31">
                    <mxGeometry width="50" height="50" relative="1" as="geometry">
                        <mxPoint x="475" y="162" as="sourcePoint"/>
                        <mxPoint x="470" y="200" as="targetPoint"/>
                    </mxGeometry>
                </mxCell>
            </root>
        </mxGraphModel>
    </diagram>
</mxfile>